<svg width="40" height="40" viewBox="0 0 36 36" fill="none" xmlns="http://www.w3.org/2000/svg">
<path d="M17.8138 32.6589C20.7499 32.6589 23.62 31.7882 26.0613 30.157C28.5025 28.5258 30.4053 26.2073 31.5288 23.4948C32.6524 20.7822 32.9464 17.7973 32.3736 14.9177C31.8008 12.038 30.387 9.39289 28.3108 7.31677C26.2347 5.24065 23.5896 3.8268 20.7099 3.254C17.8303 2.6812 14.8454 2.97518 12.1328 4.09877C9.42027 5.22236 7.10179 7.12508 5.47059 9.56634C3.8394 12.0076 2.96875 14.8777 2.96875 17.8138C2.96875 21.751 4.53278 25.5269 7.31676 28.3108C8.69526 29.6893 10.3318 30.7828 12.1328 31.5289C13.9339 32.2749 15.8643 32.6589 17.8138 32.6589V32.6589ZM12.336 15.0526L16.7895 10.8069C16.8539 10.7441 16.9294 10.6938 17.0122 10.6585C17.082 10.5955 17.1624 10.5452 17.2497 10.51C17.4274 10.4315 17.6195 10.3909 17.8138 10.3909C18.0081 10.3909 18.2002 10.4315 18.3779 10.51C18.5601 10.5807 18.7266 10.6866 18.8678 10.8218L23.3213 15.2753C23.6009 15.5548 23.7579 15.934 23.7579 16.3293C23.7579 16.7246 23.6009 17.1038 23.3213 17.3833C23.0418 17.6628 22.6626 17.8199 22.2673 17.8199C21.872 17.8199 21.4929 17.6628 21.2133 17.3833L19.2983 15.4534V23.7518C19.2983 24.1455 19.1419 24.5231 18.8635 24.8015C18.5851 25.0799 18.2075 25.2363 17.8138 25.2363C17.4201 25.2363 17.0425 25.0799 16.7641 24.8015C16.4857 24.5231 16.3293 24.1455 16.3293 23.7518V15.3495L14.3846 17.2052C14.0992 17.4768 13.7175 17.624 13.3235 17.6142C12.9296 17.6045 12.5557 17.4386 12.284 17.1532C12.0124 16.8678 11.8652 16.4861 11.875 16.0922C11.8847 15.6982 12.0505 15.3243 12.336 15.0526V15.0526Z" fill="#BC2E5B"/>
</svg>
